<svg width="10" height="11" viewBox="0 0 10 11" fill="none" xmlns="http://www.w3.org/2000/svg">
<path d="M1.37629 5.67075C1.19445 5.46293 0.878566 5.44187 0.670748 5.62371C0.462929 5.80555 0.441871 6.12143 0.623712 6.32925L1.37629 5.67075ZM4.5 10L4.12371 10.3293C4.23342 10.4546 4.39837 10.5171 4.56362 10.4959C4.72887 10.4747 4.87271 10.3726 4.94721 10.2236L4.5 10ZM9.44721 1.22361C9.57071 0.976618 9.4706 0.676281 9.22361 0.552786C8.97662 0.429292 8.67628 0.529404 8.55279 0.776393L9.44721 1.22361ZM0.623712 6.32925L4.12371 10.3293L4.87629 9.67075L1.37629 5.67075L0.623712 6.32925ZM4.94721 10.2236L9.44721 1.22361L8.55279 0.776393L4.05279 9.77639L4.94721 10.2236Z" fill="#fff"/>
</svg>
