<svg width="22" height="22" viewBox="0 0 22 22" fill="none" xmlns="http://www.w3.org/2000/svg">
<path d="M11 0C4.92486 0 0 4.92486 0 11C0 17.0751 4.92486 22 11 22C17.0751 22 22 17.0751 22 11C22 4.92486 17.0751 0 11 0ZM17.2857 11C17.2857 11.8679 16.5822 12.5714 15.7143 12.5714H12.5714V15.7143C12.5714 16.5822 11.8679 17.2857 11 17.2857V17.2857C10.1321 17.2857 9.42857 16.5822 9.42857 15.7143V12.5714H6.28572C5.41784 12.5714 4.71429 11.8679 4.71429 11V11C4.71429 10.1321 5.41784 9.42857 6.28571 9.42857H9.42857V6.28572C9.42857 5.41784 10.1321 4.71429 11 4.71429V4.71429C11.8679 4.71429 12.5714 5.41784 12.5714 6.28571V9.42857H15.7143C16.5822 9.42857 17.2857 10.1321 17.2857 11V11Z" fill="#fd9e41"/>
</svg>
