<svg width="90" height="91" viewBox="0 0 90 91" fill="none" xmlns="http://www.w3.org/2000/svg">
<path d="M54.9431 87.0435H6.95482C5.26579 87.0435 3.97418 85.7576 3.97418 84.0761V31.6522C3.97418 29.9707 5.26579 28.6848 6.95482 28.6848H82.4643C84.1533 28.6848 85.4449 29.9707 85.4449 31.6522V56.6772C86.9353 57.7652 88.2269 59.0511 89.4191 60.4359V16.8152C89.4191 12.9576 86.3391 9.89133 82.4643 9.89133H71.5353V14.837C71.5353 18.6946 68.4553 21.7609 64.5805 21.7609C60.7057 21.7609 57.6257 18.6946 57.6257 14.837V9.89133H31.7935V14.837C31.7935 18.6946 28.7135 21.7609 24.8386 21.7609C20.9638 21.7609 17.8838 18.6946 17.8838 14.837V9.89133H6.95482C3.07999 9.89133 0 12.9576 0 16.8152V84.0761C0 87.9337 3.07999 91 6.95482 91H58.7186C57.2282 89.813 56.036 88.5272 54.9431 87.0435Z" fill="white"/>
<path d="M24.8386 19.7826C27.6206 19.7826 29.8064 17.6065 29.8064 14.837V4.94565C29.8064 2.17609 27.6206 0 24.8386 0C22.0567 0 19.8709 2.17609 19.8709 4.94565V14.837C19.8709 17.6065 22.0567 19.7826 24.8386 19.7826Z" fill="white"/>
<path d="M64.5805 19.7826C67.3624 19.7826 69.5482 17.6065 69.5482 14.837V4.94565C69.5482 2.17609 67.3624 0 64.5805 0C61.7985 0 59.6127 2.17609 59.6127 4.94565V14.837C59.6127 17.6065 61.7985 19.7826 64.5805 19.7826Z" fill="white"/>
<path d="M33.7806 39.5652C35.4267 39.5652 36.7612 38.2367 36.7612 36.5978C36.7612 34.959 35.4267 33.6304 33.7806 33.6304C32.1344 33.6304 30.7999 34.959 30.7999 36.5978C30.7999 38.2367 32.1344 39.5652 33.7806 39.5652Z" fill="white"/>
<path d="M44.7096 39.5652C46.3558 39.5652 47.6903 38.2367 47.6903 36.5978C47.6903 34.959 46.3558 33.6304 44.7096 33.6304C43.0635 33.6304 41.729 34.959 41.729 36.5978C41.729 38.2367 43.0635 39.5652 44.7096 39.5652Z" fill="white"/>
<path d="M55.6385 39.5652C57.2846 39.5652 58.6191 38.2367 58.6191 36.5978C58.6191 34.959 57.2846 33.6304 55.6385 33.6304C53.9923 33.6304 52.6578 34.959 52.6578 36.5978C52.6578 38.2367 53.9923 39.5652 55.6385 39.5652Z" fill="white"/>
<path d="M66.5676 39.5652C68.2137 39.5652 69.5482 38.2367 69.5482 36.5978C69.5482 34.959 68.2137 33.6304 66.5676 33.6304C64.9214 33.6304 63.5869 34.959 63.5869 36.5978C63.5869 38.2367 64.9214 39.5652 66.5676 39.5652Z" fill="white"/>
<path d="M77.4966 39.5652C79.1427 39.5652 80.4772 38.2367 80.4772 36.5978C80.4772 34.959 79.1427 33.6304 77.4966 33.6304C75.8504 33.6304 74.5159 34.959 74.5159 36.5978C74.5159 38.2367 75.8504 39.5652 77.4966 39.5652Z" fill="white"/>
<path d="M11.9225 50.4456C13.5687 50.4456 14.9032 49.1171 14.9032 47.4783C14.9032 45.8394 13.5687 44.5109 11.9225 44.5109C10.2764 44.5109 8.94189 45.8394 8.94189 47.4783C8.94189 49.1171 10.2764 50.4456 11.9225 50.4456Z" fill="white"/>
<path d="M22.8515 50.4456C24.4977 50.4456 25.8322 49.1171 25.8322 47.4783C25.8322 45.8394 24.4977 44.5109 22.8515 44.5109C21.2054 44.5109 19.8709 45.8394 19.8709 47.4783C19.8709 49.1171 21.2054 50.4456 22.8515 50.4456Z" fill="white"/>
<path d="M33.7806 50.4456C35.4267 50.4456 36.7612 49.1171 36.7612 47.4783C36.7612 45.8394 35.4267 44.5109 33.7806 44.5109C32.1344 44.5109 30.7999 45.8394 30.7999 47.4783C30.7999 49.1171 32.1344 50.4456 33.7806 50.4456Z" fill="white"/>
<path d="M44.7096 50.4456C46.3558 50.4456 47.6903 49.1171 47.6903 47.4783C47.6903 45.8394 46.3558 44.5109 44.7096 44.5109C43.0635 44.5109 41.729 45.8394 41.729 47.4783C41.729 49.1171 43.0635 50.4456 44.7096 50.4456Z" fill="white"/>
<path d="M55.6385 50.4456C57.2846 50.4456 58.6191 49.1171 58.6191 47.4783C58.6191 45.8394 57.2846 44.5109 55.6385 44.5109C53.9923 44.5109 52.6578 45.8394 52.6578 47.4783C52.6578 49.1171 53.9923 50.4456 55.6385 50.4456Z" fill="white"/>
<path d="M66.5676 50.4456C68.2137 50.4456 69.5482 49.1171 69.5482 47.4783C69.5482 45.8394 68.2137 44.5109 66.5676 44.5109C64.9214 44.5109 63.5869 45.8394 63.5869 47.4783C63.5869 49.1171 64.9214 50.4456 66.5676 50.4456Z" fill="white"/>
<path d="M77.4966 50.4456C79.1427 50.4456 80.4772 49.1171 80.4772 47.4783C80.4772 45.8394 79.1427 44.5109 77.4966 44.5109C75.8504 44.5109 74.5159 45.8394 74.5159 47.4783C74.5159 49.1171 75.8504 50.4456 77.4966 50.4456Z" fill="white"/>
<path d="M11.9225 61.3261C13.5687 61.3261 14.9032 59.9975 14.9032 58.3587C14.9032 56.7199 13.5687 55.3913 11.9225 55.3913C10.2764 55.3913 8.94189 56.7199 8.94189 58.3587C8.94189 59.9975 10.2764 61.3261 11.9225 61.3261Z" fill="white"/>
<path d="M22.8515 61.3261C24.4977 61.3261 25.8322 59.9975 25.8322 58.3587C25.8322 56.7199 24.4977 55.3913 22.8515 55.3913C21.2054 55.3913 19.8709 56.7199 19.8709 58.3587C19.8709 59.9975 21.2054 61.3261 22.8515 61.3261Z" fill="white"/>
<path d="M33.7806 61.3261C35.4267 61.3261 36.7612 59.9975 36.7612 58.3587C36.7612 56.7199 35.4267 55.3913 33.7806 55.3913C32.1344 55.3913 30.7999 56.7199 30.7999 58.3587C30.7999 59.9975 32.1344 61.3261 33.7806 61.3261Z" fill="white"/>
<path d="M44.7096 61.3261C46.3558 61.3261 47.6903 59.9975 47.6903 58.3587C47.6903 56.7199 46.3558 55.3913 44.7096 55.3913C43.0635 55.3913 41.729 56.7199 41.729 58.3587C41.729 59.9975 43.0635 61.3261 44.7096 61.3261Z" fill="white"/>
<path d="M11.9225 72.2065C13.5687 72.2065 14.9032 70.8779 14.9032 69.2391C14.9032 67.6003 13.5687 66.2717 11.9225 66.2717C10.2764 66.2717 8.94189 67.6003 8.94189 69.2391C8.94189 70.8779 10.2764 72.2065 11.9225 72.2065Z" fill="white"/>
<path d="M22.8515 72.2065C24.4977 72.2065 25.8322 70.8779 25.8322 69.2391C25.8322 67.6003 24.4977 66.2717 22.8515 66.2717C21.2054 66.2717 19.8709 67.6003 19.8709 69.2391C19.8709 70.8779 21.2054 72.2065 22.8515 72.2065Z" fill="white"/>
<path d="M33.7806 72.2065C35.4267 72.2065 36.7612 70.8779 36.7612 69.2391C36.7612 67.6003 35.4267 66.2717 33.7806 66.2717C32.1344 66.2717 30.7999 67.6003 30.7999 69.2391C30.7999 70.8779 32.1344 72.2065 33.7806 72.2065Z" fill="white"/>
<path d="M44.7096 72.2065C46.3558 72.2065 47.6903 70.8779 47.6903 69.2391C47.6903 67.6003 46.3558 66.2717 44.7096 66.2717C43.0635 66.2717 41.729 67.6003 41.729 69.2391C41.729 70.8779 43.0635 72.2065 44.7096 72.2065Z" fill="white"/>
<path d="M11.9225 83.0869C13.5687 83.0869 14.9032 81.7584 14.9032 80.1196C14.9032 78.4807 13.5687 77.1522 11.9225 77.1522C10.2764 77.1522 8.94189 78.4807 8.94189 80.1196C8.94189 81.7584 10.2764 83.0869 11.9225 83.0869Z" fill="white"/>
<path d="M22.8515 83.0869C24.4977 83.0869 25.8322 81.7584 25.8322 80.1196C25.8322 78.4807 24.4977 77.1522 22.8515 77.1522C21.2054 77.1522 19.8709 78.4807 19.8709 80.1196C19.8709 81.7584 21.2054 83.0869 22.8515 83.0869Z" fill="white"/>
<path d="M33.7806 83.0869C35.4267 83.0869 36.7612 81.7584 36.7612 80.1196C36.7612 78.4807 35.4267 77.1522 33.7806 77.1522C32.1344 77.1522 30.7999 78.4807 30.7999 80.1196C30.7999 81.7584 32.1344 83.0869 33.7806 83.0869Z" fill="white"/>
<path d="M44.7096 83.0869C46.3558 83.0869 47.6903 81.7584 47.6903 80.1196C47.6903 78.4807 46.3558 77.1522 44.7096 77.1522C43.0635 77.1522 41.729 78.4807 41.729 80.1196C41.729 81.7584 43.0635 83.0869 44.7096 83.0869Z" fill="white"/>
<path d="M55.6385 61.3261C57.2846 61.3261 58.6191 59.9975 58.6191 58.3587C58.6191 56.7199 57.2846 55.3913 55.6385 55.3913C53.9923 55.3913 52.6578 56.7199 52.6578 58.3587C52.6578 59.9975 53.9923 61.3261 55.6385 61.3261Z" fill="white"/>
<path d="M72.5289 57.3696C63.1896 57.3696 55.6386 64.887 55.6386 74.1848C55.6386 83.4826 63.1896 91 72.5289 91C81.8682 91 89.4192 83.4826 89.4192 74.1848C89.4192 64.887 81.8682 57.3696 72.5289 57.3696ZM75.6089 80.8119C75.5095 81.0098 73.6218 83.8783 69.9457 83.8783C69.0515 83.8783 68.8528 83.4826 68.8528 82.988C68.8528 82.4935 69.3495 81.1087 70.5418 77.5478L71.3366 75.2728C71.6347 74.4815 71.7341 73.987 71.7341 73.6902C71.7341 73.4924 71.6347 73.2946 71.3366 73.2946C70.8399 73.2946 69.5483 74.7783 69.2502 75.2728C69.1508 75.3717 69.0515 75.3717 68.9521 75.2728L68.6541 74.9761C68.5547 74.7783 68.5547 74.6793 68.5547 74.6793C68.6541 74.4815 71.0386 71.1185 74.2179 71.1185C75.1121 71.1185 75.5095 71.613 75.5095 72.2065C75.5095 72.8 75.1121 73.6902 74.6153 75.3717L73.0257 79.8228C72.6282 80.9109 72.5289 81.3065 72.5289 81.6033C72.5289 81.8011 72.6282 81.9989 72.9263 81.9989C73.5224 81.9989 74.9134 80.4163 75.1121 80.2185C75.2115 80.1196 75.3108 80.1196 75.3108 80.2185L75.7082 80.6141C75.7082 80.5152 75.7082 80.6141 75.6089 80.8119ZM74.516 68.1511C73.4231 68.1511 72.6282 67.4587 72.6282 66.3707C72.6282 65.4804 73.4231 64.5902 74.4166 64.5902C75.8076 64.5902 76.5031 65.2826 76.5031 66.1728C76.5031 67.063 75.6089 68.1511 74.516 68.1511Z" fill="white"/>
</svg>
